# xmcd
# 
# Track frame offsets:
#     150
#     15067
#     33185
#     48161
#     67844
#     84242
#     102682
#     122142
#     140958
#     157285
#     176851
#     194492
#     223836
# 
# Disc length: 3301
# 
# Revision: 2
# Processed by: cddbd v1.5.2PL0 Copyright (c) Steve Scherf et al.
# Submitted via: fre:ac v1.1beta1pre5
# 
DISCID=b90ce30d
DTITLE=Bobby Bazini - Where I belong
DYEAR=2014
DGENRE=Blues
TTITLE0=Bobby Bazini - Heavy Love
TTITLE1=Bobby Bazini - Cherish Our Love
TTITLE2=Bobby Bazini - Cold Cold Heart
TTITLE3=Bobby Bazini - Bubblegum (I can't stop this feeling)
TTITLE4=Bobby Bazini - Where I Belong
TTITLE5=Bobby Bazini - Ain't no love in the heart of the city
TTITLE6=Bobby Bazini - I'm Gonna Be Your Man
TTITLE7=Bobby Bazini - Take Me Home
TTITLE8=Bobby Bazini - Down On My Knees
TTITLE9=Bobby Bazini - Worried Again
TTITLE10=Bobby Bazini - There Ain't No Words
TTITLE11=Bobby Bazini - Wish you were here
TTITLE12=Bobby Bazini - To Love Somebody (Featuring Serena Ryder))
EXTD=
EXTT0=
EXTT1=
EXTT2=
EXTT3=
EXTT4=
EXTT5=
EXTT6=
EXTT7=
EXTT8=
EXTT9=
EXTT10=
EXTT11=
EXTT12=
PLAYORDER=
